<svg width="65" height="68" viewBox="0 0 65 68" fill="none" xmlns="http://www.w3.org/2000/svg">
<g filter="url(#filter0_d_922_16601)">
<path fill-rule="evenodd" clip-rule="evenodd" d="M12.4397 59.9999C10.2037 59.9999 8.07972 59.1119 6.47972 57.5319C4.87972 55.9519 4.01172 53.8079 4.01172 51.5719V12.4119C4.01172 10.1759 4.89972 8.05189 6.47972 6.45189C8.05972 4.85189 10.2037 3.98389 12.4397 3.98389H51.5997C53.8357 3.98389 55.9597 4.87189 57.5597 6.45189C59.1597 8.03189 60.0277 10.1759 60.0277 12.4119V51.5719C60.0277 53.8079 59.1397 55.9319 57.5597 57.5319C55.9797 59.1319 53.8357 59.9999 51.5997 59.9999H12.4397ZM46.6397 36.3599H40.7197V55.9199H51.5997C52.1711 55.9215 52.7373 55.8101 53.2655 55.5921C53.7937 55.3742 54.2737 55.054 54.6777 54.6499C55.0818 54.2459 55.402 53.7659 55.62 53.2377C55.8379 52.7094 55.9493 52.1433 55.9477 51.5719V12.4119C55.9482 11.8408 55.8361 11.2751 55.6178 10.7474C55.3995 10.2196 55.0792 9.74007 54.6754 9.33621C54.2715 8.93236 53.792 8.61211 53.2642 8.39379C52.7365 8.17547 52.1709 8.06336 51.5997 8.06389H12.4397C11.2875 8.06705 10.1834 8.52616 9.36872 9.34088C8.55399 10.1556 8.09489 11.2597 8.09172 12.4119V51.5719C8.09489 52.7241 8.55399 53.8282 9.36872 54.6429C10.1834 55.4576 11.2875 55.9167 12.4397 55.9199H34.1997V36.3599H27.6797V29.8399H34.1997V26.3359C34.1997 19.6959 37.4317 16.7759 42.9597 16.7759C45.5477 16.7759 46.9397 16.9639 47.5997 17.0559L47.6397 17.0599V23.2999H43.8797C41.9837 23.2999 41.0877 24.1119 40.8157 25.7479C40.7504 26.174 40.7196 26.6048 40.7237 27.0359V29.8239H47.5637L46.6317 36.3439L46.6397 36.3599Z" fill="#F6F8ED"/>
</g>
<defs>
<filter id="filter0_d_922_16601" x="-4" y="0" width="72" height="72" filterUnits="userSpaceOnUse" color-interpolation-filters="sRGB">
<feFlood flood-opacity="0" result="BackgroundImageFix"/>
<feColorMatrix in="SourceAlpha" type="matrix" values="0 0 0 0 0 0 0 0 0 0 0 0 0 0 0 0 0 0 127 0" result="hardAlpha"/>
<feOffset dy="4"/>
<feGaussianBlur stdDeviation="2"/>
<feComposite in2="hardAlpha" operator="out"/>
<feColorMatrix type="matrix" values="0 0 0 0 0 0 0 0 0 0 0 0 0 0 0 0 0 0 0.25 0"/>
<feBlend mode="normal" in2="BackgroundImageFix" result="effect1_dropShadow_922_16601"/>
<feBlend mode="normal" in="SourceGraphic" in2="effect1_dropShadow_922_16601" result="shape"/>
</filter>
</defs>
</svg>
