<svg width="64" height="64" viewBox="0 0 64 64" fill="none" xmlns="http://www.w3.org/2000/svg">
<path d="M20.8007 5.3335H43.2007C51.734 5.3335 58.6673 12.2668 58.6673 20.8002V43.2002C58.6673 47.3022 57.0378 51.2362 54.1372 54.1368C51.2367 57.0373 47.3027 58.6668 43.2007 58.6668H20.8007C12.2673 58.6668 5.33398 51.7335 5.33398 43.2002V20.8002C5.33398 16.6981 6.9635 12.7641 9.86407 9.86358C12.7646 6.96302 16.6986 5.3335 20.8007 5.3335ZM20.2673 10.6668C17.7212 10.6668 15.2794 11.6783 13.4791 13.4786C11.6787 15.279 10.6673 17.7208 10.6673 20.2668V43.7335C10.6673 49.0402 14.9607 53.3335 20.2673 53.3335H43.734C46.2801 53.3335 48.7219 52.3221 50.5222 50.5217C52.3226 48.7214 53.334 46.2796 53.334 43.7335V20.2668C53.334 14.9602 49.0407 10.6668 43.734 10.6668H20.2673ZM46.0007 14.6668C46.8847 14.6668 47.7326 15.018 48.3577 15.6431C48.9828 16.2683 49.334 17.1161 49.334 18.0002C49.334 18.8842 48.9828 19.7321 48.3577 20.3572C47.7326 20.9823 46.8847 21.3335 46.0007 21.3335C45.1166 21.3335 44.2687 20.9823 43.6436 20.3572C43.0185 19.7321 42.6673 18.8842 42.6673 18.0002C42.6673 17.1161 43.0185 16.2683 43.6436 15.6431C44.2687 15.018 45.1166 14.6668 46.0007 14.6668ZM32.0007 18.6668C35.5369 18.6668 38.9283 20.0716 41.4287 22.5721C43.9292 25.0726 45.334 28.4639 45.334 32.0002C45.334 35.5364 43.9292 38.9278 41.4287 41.4283C38.9283 43.9287 35.5369 45.3335 32.0007 45.3335C28.4644 45.3335 25.073 43.9287 22.5726 41.4283C20.0721 38.9278 18.6673 35.5364 18.6673 32.0002C18.6673 28.4639 20.0721 25.0726 22.5726 22.5721C25.073 20.0716 28.4644 18.6668 32.0007 18.6668ZM32.0007 24.0002C29.8789 24.0002 27.8441 24.843 26.3438 26.3433C24.8435 27.8436 24.0007 29.8784 24.0007 32.0002C24.0007 34.1219 24.8435 36.1567 26.3438 37.657C27.8441 39.1573 29.8789 40.0002 32.0007 40.0002C34.1224 40.0002 36.1572 39.1573 37.6575 37.657C39.1578 36.1567 40.0007 34.1219 40.0007 32.0002C40.0007 29.8784 39.1578 27.8436 37.6575 26.3433C36.1572 24.843 34.1224 24.0002 32.0007 24.0002Z" fill="#F6F8ED"/>
</svg>
